<?xml version="1.0" standalone="no"?>
<!DOCTYPE svg PUBLIC "-//W3C//DTD SVG 20010904//EN"
 "http://www.w3.org/TR/2001/REC-SVG-20010904/DTD/svg10.dtd">
<svg version="1.0" xmlns="http://www.w3.org/2000/svg"
 width="500.000000pt" height="500.000000pt" viewBox="0 0 500.000000 500.000000"
 preserveAspectRatio="xMidYMid meet">
<metadata>
Created by potrace 1.14, written by Peter Selinger 2001-2017
</metadata>
<g transform="translate(0.000000,500.000000) scale(0.100000,-0.100000)"
fill="#000000" stroke="none">
<path d="M1078 3337 c-53 -20 -119 -61 -150 -94 -15 -15 -47 -67 -72 -115 -54
-104 -62 -175 -25 -222 31 -39 50 -30 66 33 39 155 174 329 245 319 53 -7 26
-115 -110 -438 -221 -524 -241 -577 -249 -672 -5 -63 -4 -68 22 -92 32 -30 65
-33 87 -8 9 9 33 62 53 117 47 125 60 151 153 300 189 304 336 502 438 593 62
55 94 70 94 44 0 -26 -62 -162 -123 -270 -131 -231 -191 -374 -216 -508 -13
-69 -1 -125 34 -160 37 -37 63 -31 84 19 24 55 186 325 215 357 13 14 53 68
91 120 74 104 184 223 228 246 24 13 28 13 33 -1 7 -17 -14 -113 -27 -120 -16
-10 -122 -246 -209 -465 -33 -84 -63 -257 -57 -331 10 -122 89 -239 170 -254
47 -9 108 10 159 48 45 35 77 81 65 93 -4 4 -39 -3 -78 -15 -79 -27 -147 -25
-179 4 -42 38 -19 150 81 391 33 82 71 176 83 209 12 33 39 92 59 131 74 146
93 246 62 322 -51 120 -147 118 -277 -5 -94 -90 -231 -276 -330 -448 -88 -152
93 272 195 456 54 99 60 146 26 216 -36 74 -94 89 -162 41 -48 -34 -237 -257
-325 -383 -45 -65 -82 -114 -82 -110 0 5 29 94 65 199 77 230 85 279 56 357
-12 31 -32 66 -45 79 -30 28 -97 35 -148 17z m23 -404 c-12 -20 -14 -14 -5 12
4 9 9 14 11 11 3 -2 0 -13 -6 -23z m-20 -50 c-12 -20 -14 -14 -5 12 4 9 9 14
11 11 3 -2 0 -13 -6 -23z m756 -415 c-3 -8 -6 -5 -6 6 -1 11 2 17 5 13 3 -3 4
-12 1 -19z m-16 -45 c-12 -20 -14 -14 -5 12 4 9 9 14 11 11 3 -2 0 -13 -6 -23z
m-35 -80 c-8 -15 -15 -25 -16 -21 0 12 23 58 27 54 3 -2 -2 -17 -11 -33z"/>
<path d="M3152 2800 c-18 -4 -51 -20 -73 -36 -41 -28 -189 -189 -212 -229 -26
-49 -98 -135 -154 -184 l-58 -52 -3 32 c-3 28 29 143 64 227 28 67 11 102 -51
102 -41 0 -69 -25 -132 -117 -77 -113 -176 -229 -213 -248 -27 -14 -31 -14
-36 0 -4 8 -4 25 -1 38 10 43 98 242 127 288 17 25 33 59 36 76 5 28 2 33 -24
47 -17 9 -40 16 -51 16 -41 0 -99 -75 -172 -221 -27 -53 -59 -191 -59 -251 0
-65 28 -118 62 -118 73 0 150 61 280 220 l37 45 -16 -53 c-28 -101 9 -172 91
-172 43 0 67 12 135 68 l41 34 0 -49 c0 -61 34 -130 79 -160 61 -41 108 -8
231 161 47 64 86 113 87 108 2 -4 -10 -54 -26 -111 l-29 -104 -130 -126 c-185
-180 -281 -315 -290 -411 -13 -134 130 -245 228 -178 74 50 159 226 241 498
72 235 74 240 127 283 187 153 230 187 235 187 3 0 1 -15 -4 -32 -12 -43 -12
-150 1 -182 17 -45 46 -66 93 -66 41 0 48 4 113 73 38 39 91 107 118 150 26
43 50 76 53 74 2 -3 -3 -32 -11 -65 -44 -169 3 -312 104 -312 34 0 48 7 86 42
63 58 125 147 200 289 59 109 76 159 57 159 -17 0 -33 -21 -117 -148 -98 -148
-176 -239 -194 -228 -14 9 -15 65 -2 123 5 23 12 63 15 88 3 26 24 87 46 136
38 84 39 90 25 118 -27 52 -88 57 -139 11 -19 -16 -37 -30 -39 -30 -3 0 -10
18 -17 39 -15 51 -71 101 -113 101 -67 0 -159 -84 -216 -197 -15 -29 -46 -59
-104 -101 -46 -33 -112 -85 -147 -116 -36 -31 -67 -54 -70 -51 -3 3 23 61 57
128 34 68 62 131 62 141 0 29 -46 66 -83 66 -44 0 -62 -20 -190 -216 -97 -147
-179 -244 -208 -244 -8 0 -10 17 -6 56 7 66 74 209 141 299 111 150 134 168
225 175 60 5 66 7 69 29 11 72 -66 107 -176 81z m697 -139 c6 -10 8 -20 6 -23
-3 -3 2 -28 11 -57 l15 -52 -57 -82 c-63 -90 -131 -176 -154 -194 -11 -9 -17
-9 -22 0 -8 16 22 170 36 179 6 4 7 8 2 8 -5 0 -4 6 2 13 5 6 24 48 42 92 29
73 75 135 100 135 5 0 14 -8 19 -19z m-1188 -168 c-12 -20 -14 -14 -5 12 4 9
9 14 11 11 3 -2 0 -13 -6 -23z m363 -595 c-57 -166 -121 -302 -163 -351 -56
-64 -101 -43 -101 47 0 48 20 90 88 184 52 73 206 252 217 252 3 0 -16 -60
-41 -132z"/>
</g>
</svg>
